<?xml version="1.0" encoding="utf-8"?>
<!-- Generator: Adobe Illustrator 16.0.3, SVG Export Plug-In . SVG Version: 6.00 Build 0)  -->
<!DOCTYPE svg PUBLIC "-//W3C//DTD SVG 1.0//EN" "http://www.w3.org/TR/2001/REC-SVG-20010904/DTD/svg10.dtd">
<svg version="1.0" id="Capa_1" xmlns="http://www.w3.org/2000/svg" xmlns:xlink="http://www.w3.org/1999/xlink" x="0px" y="0px"
	 width="353.5049px" height="168.1831px" viewBox="0 0 353.5049 168.1831" enable-background="new 0 0 353.5049 168.1831"
	 xml:space="preserve">
<g>
	<defs>
		<rect id="SVGID_1_" width="353.5049" height="168.1831"/>
	</defs>
	<clipPath id="SVGID_2_">
		<use xlink:href="#SVGID_1_"  overflow="visible"/>
	</clipPath>
	<path clip-path="url(#SVGID_2_)" fill="#FFFFFF" d="M255.2754,148.8589L255.2754,148.8589c0-0.2764,0.2314-0.5088,0.5088-0.5088
		h1.8477c0.2783,0,0.5547,0.2324,0.5547,0.5088V165.27h7.5313c0.3232,0,0.5537,0.2783,0.5537,0.5547v1.5264
		c0,0.2773-0.2305,0.5078-0.5537,0.5078h-9.9336c-0.2773,0-0.5088-0.2305-0.5088-0.5078V148.8589z"/>
	<path clip-path="url(#SVGID_2_)" fill="#FFFFFF" d="M269.1836,148.8589L269.1836,148.8589c0-0.2764,0.2305-0.5088,0.5537-0.5088
		h1.8018c0.2783,0,0.5547,0.2324,0.5547,0.5088v18.4922c0,0.2773-0.2764,0.5078-0.5547,0.5078h-1.8018
		c-0.3232,0-0.5537-0.2305-0.5537-0.5078V148.8589z"/>
	<path clip-path="url(#SVGID_2_)" fill="#FFFFFF" d="M279.625,148.4897L279.625,148.4897c0.0459-0.2314,0.2773-0.416,0.5078-0.416
		h0.416c0.1855,0,0.416,0.1387,0.5078,0.2764l5.8223,14.2852h0.0918l5.8223-14.2852c0.0459-0.1377,0.2773-0.2764,0.4619-0.2764
		h0.4619c0.2314,0,0.416,0.1846,0.5078,0.416l3.4199,18.7686c0.0928,0.3701-0.0928,0.6006-0.5088,0.6006h-1.8018
		c-0.2773,0-0.4619-0.1846-0.5537-0.3691l-2.0332-12.4824h-0.0928l-5.0361,12.8516c-0.0459,0.1396-0.2314,0.3242-0.4619,0.3242
		h-0.5078c-0.2314,0-0.416-0.1846-0.4619-0.3242l-5.082-12.8516h-0.0938l-1.9863,12.4824
		c-0.0459,0.1846-0.2773,0.3691-0.5088,0.3691h-1.8477c-0.3701,0-0.5547-0.2305-0.5078-0.6006L279.625,148.4897z"/>
	<path clip-path="url(#SVGID_2_)" fill="#FFFFFF" d="M299.123,167.1655L299.123,167.1655l8.5479-18.8145
		c0.0918-0.1396,0.3701-0.2773,0.5078-0.2773h0.2783c0.1377,0,0.3691,0.1377,0.4619,0.2773l8.501,18.8145
		c0.1846,0.3701-0.0459,0.6943-0.4619,0.6943h-1.7559c-0.3691,0-0.5547-0.1387-0.6475-0.416l-1.7549-3.791h-9.1025
		c-0.5547,1.248-1.1553,2.543-1.71,3.791c-0.0918,0.2305-0.3223,0.416-0.6465,0.416h-1.7549
		C299.1699,167.8599,298.9385,167.5356,299.123,167.1655 M311.7363,161.2485L311.7363,161.2485l-3.4189-7.6738h-0.1387
		l-3.3721,7.6738H311.7363z"/>
	<polygon clip-path="url(#SVGID_2_)" fill="#FFFFFF" points="0,122.1851 0,122.1851 0,29.5405 59.1411,29.5405 59.1411,47.6626 
		20.2832,47.6626 20.2832,69.1597 49.5771,69.1597 49.5771,87.0034 20.2832,87.0034 20.2832,111.4595 59.1411,111.5972 
		59.1411,129.6274 0,129.6274 	"/>
	<path clip-path="url(#SVGID_2_)" fill="#FFFFFF" d="M122.9014-0.0005L122.9014-0.0005l13.3071,13.083v89.9629h-20.1909V73.7363
		H93.6084v29.3091H73.4175V13.0825l13.3071-13.083H122.9014z M116.0176,51.2681L116.0176,51.2681V22.3755l-4.251-4.3003H97.8594
		l-4.251,4.3003v28.8926l4.436,4.2993h13.5371L116.0176,51.2681z"/>
	<polygon clip-path="url(#SVGID_2_)" fill="#FFFFFF" points="150.4854,47.5239 150.4854,47.5239 150.4854,29.5405 216.9268,29.5405 
		216.9268,47.5239 193.6396,47.6626 193.6396,129.6274 173.3564,129.6274 173.3564,47.6626 	"/>
	<polygon clip-path="url(#SVGID_2_)" fill="#FFFFFF" points="268.0742,96.2495 268.0742,96.2495 254.6748,96.2495 254.6748,29.5869 
		268.0742,29.5869 	"/>
	<polygon clip-path="url(#SVGID_2_)" fill="#FFFFFF" points="277.5918,29.5864 277.5918,29.5864 289.1436,29.5864 305.0371,61.0225 
		305.0371,29.5864 317.5117,29.5864 317.5117,96.2495 306.7471,96.2495 290.0674,61.6694 290.0674,96.2495 277.5918,96.2495 	"/>
	<polygon clip-path="url(#SVGID_2_)" fill="#FFFFFF" points="217.0195,69.1592 217.0195,69.1592 234.8066,69.1592 234.8066,86.9575 
		217.0195,86.9575 	"/>
	<polygon clip-path="url(#SVGID_2_)" fill="#FFFFFF" points="335.7168,69.1592 335.7168,69.1592 353.5059,69.1592 353.5059,86.9575 
		335.7168,86.9575 	"/>
	<polygon clip-path="url(#SVGID_2_)" fill="#FFFFFF" points="135.9775,129.5815 135.9775,129.5815 73.1406,129.5815 
		73.1406,111.0894 135.9775,111.0894 	"/>
	<polygon clip-path="url(#SVGID_2_)" fill="#FFFFFF" points="317.5117,129.5815 317.5117,129.5815 254.6748,129.5815 
		254.6748,111.0894 317.5117,111.0894 	"/>
</g>
</svg>
